<?xml version="1.0" standalone="no"?>
<!DOCTYPE svg PUBLIC "-//W3C//DTD SVG 20010904//EN"
 "http://www.w3.org/TR/2001/REC-SVG-20010904/DTD/svg10.dtd">
<svg version="1.0" xmlns="http://www.w3.org/2000/svg"
 width="298.000000pt" height="37.000000pt" viewBox="0 0 298.000000 37.000000"
 preserveAspectRatio="xMidYMid meet">
<metadata>
Created by potrace 1.10, written by Peter Selinger 2001-2011
</metadata>
<g transform="translate(0.000000,37.000000) scale(0.100000,-0.100000)"
fill="#000000" stroke="none">
<path d="M133 263 c-9 -3 -13 -27 -13 -68 0 -52 3 -65 18 -69 30 -8 136 -4
149 6 7 5 18 6 25 2 7 -5 82 -9 167 -10 132 0 155 -3 163 -17 6 -11 22 -17 48
-17 57 0 59 18 3 23 -34 2 -25 4 32 6 44 1 94 2 110 2 73 0 76 3 73 77 -3 66
-4 67 -32 70 -16 2 -33 -1 -38 -6 -6 -6 -20 -6 -39 1 -46 18 -63 1 -67 -67
l-3 -56 -40 0 c-24 0 -38 4 -34 10 3 6 1 10 -6 10 -10 0 -10 3 -1 12 37 37
-21 88 -67 59 -9 -6 -21 -5 -32 2 -14 9 -26 9 -49 0 -16 -6 -32 -8 -35 -4 -7
12 -144 11 -151 -1 -3 -5 -17 -13 -30 -18 -26 -10 -34 -54 -11 -63 6 -3 -1 -5
-18 -5 -16 0 -24 2 -17 5 6 2 12 17 12 33 0 16 -6 31 -12 33 -7 3 4 6 25 6 47
1 49 21 1 21 -19 0 -42 7 -50 15 -15 15 -56 19 -81 8z m70 -25 c2 -7 0 -21 -5
-30 -6 -12 -5 -18 2 -18 6 0 10 -10 8 -22 -2 -18 -11 -24 -35 -26 l-33 -3 0
55 c0 55 0 56 29 56 16 0 31 -6 34 -12z m607 -43 c0 -54 0 -55 -30 -55 -30 0
-30 1 -30 55 0 54 0 55 30 55 30 0 30 -1 30 -55z m63 45 c-28 -12 -30 -30 -3
-37 14 -4 20 -14 20 -34 0 -25 -4 -29 -27 -28 -27 0 -27 1 -5 9 27 12 29 30 2
37 -14 4 -20 14 -20 34 0 25 4 29 28 28 26 0 26 -1 5 -9z m-498 -60 c0 -31 -3
-35 -27 -38 -27 -3 -28 -1 -28 38 0 39 1 41 28 38 24 -3 27 -7 27 -38z m93 -2
c2 -21 -1 -38 -7 -38 -5 0 -11 14 -13 32 -4 46 -28 49 -28 4 0 -20 -4 -36 -10
-36 -5 0 -10 18 -10 41 0 39 1 40 32 37 29 -3 32 -7 36 -40z m82 36 c0 -3 -9
-19 -20 -34 l-20 -29 22 -4 c17 -3 14 -5 -9 -6 -39 -1 -40 2 -11 42 18 25 19
29 5 24 -9 -3 -19 -2 -22 3 -4 6 7 10 24 10 17 0 31 -3 31 -6z m88 -16 c3 -14
-3 -18 -23 -18 -33 0 -29 -22 6 -31 21 -6 21 -7 -8 -8 -32 -1 -33 0 -33 40 0
38 2 40 27 37 17 -2 29 -10 31 -20z"/>
<path d="M160 219 c0 -24 23 -21 28 4 2 10 -3 17 -12 17 -10 0 -16 -9 -16 -21z"/>
<path d="M160 170 c0 -11 7 -20 15 -20 8 0 15 9 15 20 0 11 -7 20 -15 20 -8 0
-15 -9 -15 -20z"/>
<path d="M764 227 c-10 -27 0 -72 16 -72 11 0 15 11 15 39 0 40 -20 61 -31 33z"/>
<path d="M334 195 c-8 -19 2 -45 16 -45 5 0 10 14 10 30 0 31 -16 41 -26 15z"/>
<path d="M595 200 c-3 -5 1 -10 9 -10 9 0 16 5 16 10 0 6 -4 10 -9 10 -6 0
-13 -4 -16 -10z"/>
<path d="M1007 252 c-23 -25 -22 -94 1 -114 13 -12 44 -15 149 -14 73 0 133
-2 133 -6 0 -4 6 -5 14 -2 8 3 57 6 110 7 52 1 97 5 101 9 4 4 18 2 32 -5 18
-8 29 -8 43 1 11 6 21 8 24 3 8 -12 160 -12 167 1 4 6 13 5 27 -3 16 -10 26
-10 46 -1 14 6 28 8 30 3 7 -11 297 -8 314 3 15 9 14 73 -1 93 -12 17 -49 17
-65 1 -10 -10 -15 -10 -20 -1 -8 14 -149 16 -158 2 -9 -16 -24 -10 -24 10 0
29 -32 36 -52 11 -17 -20 -18 -21 -44 -3 -26 17 -27 17 -42 -5 -10 -15 -19
-19 -31 -13 -22 11 -140 11 -147 0 -10 -17 -34 -9 -34 10 0 37 -43 37 -53 0
-4 -15 0 -19 20 -19 23 0 25 -3 21 -35 -3 -25 0 -35 12 -39 9 -2 6 -4 -7 -5
-20 -1 -23 4 -23 34 0 23 -5 35 -14 35 -7 0 -19 6 -25 14 -9 11 -52 13 -215
12 -185 -1 -205 1 -215 17 -14 22 -53 22 -74 -1z m46 -9 c-20 -4 -23 -11 -23
-48 0 -37 3 -44 23 -48 15 -4 12 -5 -8 -4 -27 2 -30 6 -33 41 -5 53 3 66 35
65 24 -2 25 -2 6 -6z m864 1 c-3 -3 -12 -4 -19 -1 -8 3 -5 6 6 6 11 1 17 -2
13 -5z m-97 -14 c0 -5 8 -11 18 -11 16 -1 16 -2 0 -6 -12 -3 -18 -14 -18 -33
0 -19 6 -30 18 -33 13 -4 11 -5 -5 -6 -13 0 -24 4 -24 9 -1 6 -2 19 -3 29 0
11 -4 22 -8 26 -8 9 1 35 13 35 5 0 9 -4 9 -10z m-748 -30 c-2 -16 -8 -27 -13
-24 -13 8 -11 42 4 47 6 3 12 6 13 6 0 1 -1 -12 -4 -29z m84 5 c4 -8 3 -27 0
-41 -5 -20 -12 -25 -34 -22 -28 3 -40 32 -28 64 7 19 55 18 62 -1z m94 -25 c0
-22 -4 -40 -9 -40 -5 0 -7 14 -6 30 1 17 -1 33 -6 36 -5 3 -9 -11 -9 -30 0
-20 -4 -36 -9 -36 -5 0 -7 14 -6 30 1 17 -1 33 -6 36 -5 3 -9 -11 -9 -30 0
-50 -15 -45 -16 4 -1 40 -1 40 37 40 39 0 39 0 39 -40z m87 -2 c1 -21 -2 -38
-7 -38 -6 0 -10 16 -10 36 0 19 -4 33 -9 30 -5 -3 -7 -19 -6 -36 1 -16 -1 -30
-6 -30 -5 0 -9 16 -9 36 0 19 -4 33 -9 30 -5 -4 -7 -20 -5 -36 3 -17 1 -30 -5
-30 -6 0 -11 18 -11 41 l0 40 38 -3 c35 -3 37 -5 39 -40z m33 7 c0 -24 5 -35
15 -35 10 0 15 11 15 35 0 19 4 35 9 35 4 0 8 -18 7 -40 -1 -37 -3 -40 -28
-40 -16 0 -28 3 -29 8 -6 56 -6 72 2 72 5 0 9 -16 9 -35z m128 -7 c2 -22 -1
-38 -7 -38 -6 0 -11 16 -11 36 0 24 -4 34 -12 31 -8 -2 -12 -16 -10 -35 2 -18
-1 -32 -7 -32 -6 0 -11 18 -11 41 0 38 1 40 28 37 23 -3 27 -8 30 -40z m172
33 c0 -5 -6 -8 -12 -7 -15 1 -18 -5 -18 -33 0 -11 8 -22 18 -25 10 -3 6 -4 -8
-3 -26 2 -38 32 -26 63 6 15 46 20 46 5z m91 -33 c6 -37 5 -38 -27 -38 -48 0
-55 42 -9 52 19 5 18 6 -5 16 l-25 12 30 -3 c26 -2 31 -7 36 -39z m149 8 c0
-24 5 -36 18 -39 11 -3 8 -5 -9 -6 -24 -1 -26 2 -24 29 2 20 -3 34 -14 40 -13
8 -13 9 7 10 19 0 22 -5 22 -34z m105 -6 c0 -31 -3 -35 -27 -38 -26 -3 -28 -1
-28 31 0 40 7 49 35 45 16 -2 20 -10 20 -38z m93 -2 c2 -21 -1 -38 -7 -38 -5
0 -11 14 -13 32 -4 46 -28 49 -28 4 0 -20 -4 -36 -10 -36 -5 0 -10 18 -10 41
0 39 1 40 33 37 29 -3 32 -6 35 -40z m62 30 l-25 -10 23 -9 c13 -5 22 -17 22
-29 0 -15 -6 -20 -27 -19 -17 1 -21 3 -10 6 21 5 23 33 2 33 -8 0 -15 9 -15
20 0 15 6 20 28 19 l27 0 -25 -11z m-573 -30 c-3 -7 -5 -2 -5 12 0 14 2 19 5
13 2 -7 2 -19 0 -25z m-70 -20 c-3 -7 -5 -2 -5 12 0 14 2 19 5 13 2 -7 2 -19
0 -25z m153 28 c0 -3 -4 -8 -10 -11 -5 -3 -10 -1 -10 4 0 6 5 11 10 11 6 0 10
-2 10 -4z m107 -28 c-3 -7 -5 -2 -5 12 0 14 2 19 5 13 2 -7 2 -19 0 -25z m87
17 c3 -9 0 -15 -9 -15 -8 0 -15 7 -15 15 0 8 4 15 9 15 5 0 11 -7 15 -15z"/>
<path d="M1116 203 c-12 -13 -6 -53 9 -53 9 0 15 9 15 24 0 26 -12 40 -24 29z"/>
<path d="M1710 165 c0 -8 7 -15 15 -15 8 0 15 7 15 15 0 8 -7 15 -15 15 -8 0
-15 -7 -15 -15z"/>
<path d="M1979 208 c-6 -26 -5 -38 2 -49 8 -12 10 -12 18 0 11 18 8 44 -7 49
-7 2 -12 2 -13 0z"/>
<path d="M2302 258 c-15 -15 -16 -64 -2 -73 8 -5 7 -11 -1 -21 -9 -11 -9 -17
1 -29 17 -20 49 -19 73 3 18 16 19 16 17 -3 -4 -39 0 -46 23 -43 12 2 26 13
32 26 11 24 20 28 30 12 8 -14 48 -13 63 2 9 9 17 9 34 1 19 -9 180 -12 246
-4 7 0 12 17 12 44 0 59 -21 69 -125 64 -60 -3 -84 0 -97 10 -15 13 -19 13
-37 1 -12 -8 -18 -18 -13 -23 4 -4 -3 -3 -15 4 -28 14 -63 14 -63 0 0 -8 -4
-8 -12 -1 -17 13 -74 10 -90 -6 -6 -6 -16 -12 -22 -12 -5 0 -1 6 9 14 26 19
13 46 -23 46 -15 0 -33 -5 -40 -12z m49 -17 c-32 -9 -39 -31 -12 -38 15 -4 21
-13 21 -34 0 -25 -4 -29 -27 -28 -27 0 -27 1 -5 9 27 12 29 30 2 37 -14 4 -20
14 -20 34 0 26 3 29 33 28 29 -1 29 -2 8 -8z m249 -11 c0 -5 8 -11 18 -11 16
-1 16 -2 0 -6 -12 -3 -18 -14 -18 -33 0 -19 6 -30 18 -34 10 -3 6 -4 -8 -3
-20 2 -26 9 -30 37 -4 19 -4 41 -2 48 5 14 22 16 22 2z m-184 -42 l7 -33 9 33
c5 17 13 32 19 32 6 0 9 -6 6 -14 -3 -8 -11 -32 -18 -55 -7 -25 -18 -41 -28
-41 -11 0 -12 3 -4 11 8 8 8 22 -3 51 -17 48 -17 48 -5 48 5 0 13 -15 17 -32z
m102 25 c-21 -5 -24 -23 -4 -23 8 0 16 -6 19 -12 8 -23 -5 -38 -32 -37 -23 2
-24 2 -3 6 27 5 29 33 2 33 -11 0 -20 6 -20 13 0 19 10 27 34 26 17 -1 18 -2
4 -6z m190 -15 c3 -13 -3 -18 -22 -18 -31 0 -25 -26 7 -34 14 -2 10 -4 -8 -3
-23 2 -31 7 -33 25 -2 13 -1 30 2 38 8 21 50 14 54 -8z m100 -20 c2 -22 -1
-38 -7 -38 -6 0 -11 16 -11 36 0 19 -4 33 -9 30 -5 -3 -7 -19 -6 -36 1 -16 -1
-30 -6 -30 -5 0 -9 16 -9 36 0 19 -4 33 -9 30 -5 -3 -7 -19 -6 -36 1 -16 -1
-30 -6 -30 -5 0 -9 18 -9 41 l0 40 38 -3 c35 -3 37 -5 40 -40z"/>
<path d="M2665 200 c-3 -5 3 -10 15 -10 12 0 18 5 15 10 -3 6 -10 10 -15 10
-5 0 -12 -4 -15 -10z"/>
</g>
</svg>
